HIERARCHY
ROOT Hips
{
  OFFSET 267.745 86.9975 -272.335
  CHANNELS 6 Xposition Yposition Zposition Zrotation Xrotation Yrotation
  JOINT LeftUpLeg
  {
    OFFSET 8.64259 1.95398 -2.38835
    CHANNELS 3 Zrotation Xrotation Yrotation
    JOINT LeftLeg
    {
      OFFSET 43.7702 0 0
      CHANNELS 3 Zrotation Xrotation Yrotation
      JOINT LeftFoot
      {
        OFFSET 40.6238 0 0
        CHANNELS 3 Zrotation Xrotation Yrotation
        JOINT LeftToeBase
        {
          OFFSET 12.7242 0 0
          CHANNELS 3 Zrotation Xrotation Yrotation
          End Site
          {
            OFFSET 0 0 0
          }
        }
      }
    }
  }
  JOINT RightUpLeg
  {
    OFFSET -8.2249 1.95398 -2.59336
    CHANNELS 3 Zrotation Xrotation Yrotation
    JOINT RightLeg
    {
      OFFSET 43.5653 0 0
      CHANNELS 3 Zrotation Xrotation Yrotation
      JOINT RightFoot
      {
        OFFSET 40.6238 0 0
        CHANNELS 3 Zrotation Xrotation Yrotation
        JOINT RightToeBase
        {
          OFFSET 12.7242 0 0
          CHANNELS 3 Zrotation Xrotation Yrotation
          End Site
          {
            OFFSET 0 0 0
          }
        }
      }
    }
  }
  JOINT Spine
  {
    OFFSET 0.165834 0.87714 6.61349
    CHANNELS 3 Zrotation Xrotation Yrotation
    JOINT Spine1
    {
      OFFSET 7.38963 1.71661e-005 0
      CHANNELS 3 Zrotation Xrotation Yrotation
      JOINT Spine2
      {
        OFFSET 11.9445 1.14441e-005 0
        CHANNELS 3 Zrotation Xrotation Yrotation
        JOINT Spine3
        {
          OFFSET 14.7254 4.19617e-005 0
          CHANNELS 3 Zrotation Xrotation Yrotation
          JOINT Spine4
          {
            OFFSET 10.9679 0 0
            CHANNELS 3 Zrotation Xrotation Yrotation
            JOINT RightShoulder
            {
              OFFSET 2.46616 -1.6653 3.69651
              CHANNELS 3 Zrotation Xrotation Yrotation
              JOINT RightArm
              {
                OFFSET 13.0012 0 0
                CHANNELS 3 Zrotation Xrotation Yrotation
                JOINT RightForeArm
                {
                  OFFSET 28.7848 1.52588e-005 0
                  CHANNELS 3 Zrotation Xrotation Yrotation
                  JOINT RightHand
                  {
                    OFFSET 26.5688 1.52588e-005 0
                    CHANNELS 3 Zrotation Xrotation Yrotation
                    End Site
                    {
                      OFFSET 0 0 0
                    }
                  }
                }
              }
            }
            JOINT LeftShoulder
            {
              OFFSET 2.38034 -1.29275 -3.7523
              CHANNELS 3 Zrotation Xrotation Yrotation
              JOINT LeftArm
              {
                OFFSET 16.3182 6.10352e-005 0
                CHANNELS 3 Zrotation Xrotation Yrotation
                JOINT LeftForeArm
                {
                  OFFSET 27.0901 0 0
                  CHANNELS 3 Zrotation Xrotation Yrotation
                  JOINT LeftHand
                  {
                    OFFSET 24.5451 1.52588e-005 0
                    CHANNELS 3 Zrotation Xrotation Yrotation
                    End Site
                    {
                      OFFSET 0 0 0
                    }
                  }
                }
              }
            }
            JOINT Neck
            {
              OFFSET 5.0226 -0.0266342 0
              CHANNELS 3 Zrotation Xrotation Yrotation
              JOINT Head
              {
                OFFSET 6.69364 2.86102e-005 0
                CHANNELS 3 Zrotation Xrotation Yrotation
                End Site
                {
                  OFFSET 0 0 0
                }
              }
            }
          }
        }
      }
    }
  }
}
MOTION
Frames:	18
Frame Time:	0.0416667
230.373 97.0293 -233.683 -105.6 -56.7587 -103.348 -175.411 -11.4928 88.5538 -23.3047 29.2578 3.72802 64.0368 8.09176 15.6797 48.4768 -2.01779 3.19832 176.377 17.4231 84.3895 -7.93421 9.56306 -0.902558 55.6174 11.0695 27.7221 38.2842 -2.34692 -1.99801 -0.643935 7.88103 -89.9742 11.1134 -1.26972 0.174578 -0.556971 -1.26081 0.230284 -23.097 -1.2635 -0.215164 -3.08438 -1.26348 -0.215165 102.704 -54.3867 -81.3741 29.5715 2.74596 9.11182 0.379683 -17.3754 -9.84279 -9.34688 -0.510407 1.23188 -83.7676 -49.2501 87.7891 -25.6389 9.63232 -40.3574 4.02483 40.5799 -14.0988 4.54222 -0.417785 -9.78316 2.10322 -0.709441 -5.39204 -20.9852 -0.837257 6.61264 
223.281 95.7887 -227.283 -104.796 -57.4387 -101.328 -175.874 -12.2631 91.0994 -31.701 28.6057 6.2703 62.4263 5.18821 10.3893 56.9333 -2.58096 4.55015 173.644 17.9183 85.7195 -14.2827 6.74274 2.50203 49.7451 11.0323 19.6429 30.9439 -0.461297 -0.73269 -0.786395 7.77618 -90.3492 11.3205 -1.72752 -0.523336 -0.349337 -1.74887 -0.446786 -22.8911 -1.49037 -1.01842 -2.87841 -1.49036 -1.01842 102.791 -54.2304 -81.2433 29.1835 3.64273 8.54018 -0.196347 -17.2478 -10.4408 -7.50963 -0.435131 1.67406 -83.7882 -49.7285 87.8095 -27.3128 10.1308 -36.298 5.29887 40.8233 -15.8511 5.53592 -0.472554 -9.92744 2.58114 0.568786 -3.9069 -20.0288 0.290124 6.43261 
215.943 95.7238 -220.587 -104.5 -57.1777 -98.431 -177.109 -8.52248 96.5121 -42.6989 22.5393 7.08688 49.4758 -4.48625 1.37916 59.0384 -3.75086 -3.59633 173.317 19.1942 88.9006 -27.2426 -0.960668 3.93354 54.7751 9.08992 9.61724 21.9862 0.626134 5.76605 -0.823397 7.63966 -90.8493 11.5793 -2.03554 -1.48017 -0.0908438 -2.09871 -1.38915 -22.627 -1.49667 -2.02343 -2.61432 -1.49667 -2.02344 102.771 -54.0108 -81.27 28.0944 2.79374 5.39341 -0.085325 -17.9166 -10.504 -8.93449 -0.649044 3.32177 -83.734 -50.1213 87.9329 -31.3141 8.08821 -29.155 0.911031 46.6436 -8.22337 1.03999 -0.269393 -9.41431 3.00772 0.916059 -5.01239 -21.0633 0.391428 8.9732 
209.492 95.7948 -214.907 -104.944 -56.2658 -97.3799 -178.8 3.10491 91.3932 -59.5804 10.046 5.61638 45.9137 -5.16606 5.89513 55.6843 -3.61312 -4.96829 173.033 16.1271 91.1716 -33.8323 -0.499008 4.67121 62.3936 6.20336 8.31082 22.1254 0.324958 8.86626 -0.541732 7.75158 -91.1373 11.3512 -1.60809 -2.10471 -0.320312 -1.69912 -2.03193 -22.8451 -0.901409 -2.49049 -2.83244 -0.901396 -2.49049 102.673 -53.6142 -81.4116 27.0085 1.17266 -0.342446 0.470415 -13.9939 -12.3949 -11.4598 -0.660037 1.65475 -84.2622 -50.9963 87.2347 -34.2424 3.68075 -25.6606 -3.15526 53.3953 -0.138491 -4.10644 -0.0173217 -9.20336 3.86063 0.348104 -5.9457 -20.3903 0.222342 8.01145 
203.343 96.4445 -209.607 -101.349 -52.5781 -94.5204 -177.906 14.8156 92.2631 -63.2417 6.05741 3.72136 53.5397 0.781049 8.67182 53.9014 -2.88385 -0.741478 174.134 12.334 92.6642 -34.0085 1.23866 3.50526 67.1434 5.48018 12.5295 23.684 0.431183 6.17632 0.0213431 7.76075 -91.0617 11.3436 -0.452392 -2.06905 -0.328871 -0.543005 -2.04715 -22.8508 0.190196 -2.10934 -2.83818 0.190183 -2.10936 101.933 -53.0273 -82.5189 26.1922 -2.45287 -8.53127 0.994016 -12.444 -14.8649 -15.7388 -0.971509 2.01432 -84.0289 -51.04 87.5883 -34.574 -0.732155 -22.1677 -1.96804 56.4329 -0.00524345 -2.22163 -0.0935168 -6.63148 4.11925 -0.254352 -5.79428 -20.379 -0.0669502 5.80574 
197.625 97.2406 -203.87 -101.796 -49.23 -96.4613 -177.439 18.3596 88.6569 -47.4455 8.22276 1.98372 55.777 2.70718 9.51264 56.7608 -2.17888 7.40855 174.002 5.73109 91.3749 -32.921 -0.211216 1.9156 72.2227 3.67804 14.5521 19.3783 0.84287 8.35636 0.292209 7.97823 -90.7967 10.9158 0.213254 -1.60615 -0.756137 0.142361 -1.61398 -23.2845 0.686065 -1.46786 -3.27186 0.686048 -1.46787 100.966 -51.9713 -83.9948 24.4173 -5.90415 -16.804 0.396529 -11.9067 -17.0553 -12.2433 -0.576995 0.352727 -83.6676 -51.5672 88.1833 -32.7074 -3.28244 -16.455 -1.65361 55.4285 -0.00387228 -1.24477 -0.123218 -8.36407 2.25108 0.187715 -5.31895 -18.9579 0.15541 6.70098 
191.921 97.3746 -198.889 -100.422 -47.4216 -95.5397 -177.788 17.408 88.4725 -18.1419 8.97716 0.820574 52.2105 -0.331055 9.33719 46.7522 -1.75617 5.37153 174.456 -0.190594 90.0293 -29.8119 1.10884 0.967848 71.8921 4.64485 18.8027 26.839 0.276862 2.29394 0.530522 7.94706 -90.7194 10.9822 0.723114 -1.50019 -0.689446 0.656373 -1.53055 -23.2213 1.14049 -1.21357 -3.2086 1.1405 -1.21356 101.025 -51.655 -83.9131 21.2995 -9.38808 -22.1921 -0.413433 -11.0727 -20.9564 -12.3839 -0.405589 -1.43049 -83.8228 -51.826 87.9789 -31.0711 -3.69233 -9.96808 -2.66437 51.0704 -0.00286543 -2.93885 -0.070151 -8.78585 2.05702 0.263937 -4.51436 -19.4347 0.0786892 6.61239 
186.208 96.6854 -192.92 -99.5954 -45.1401 -93.6721 -177.727 18.3286 89.5667 -6.55289 8.41748 1.1542 57.006 -1.55373 0.841016 41.7363 -1.46139 7.85365 174.804 -4.75165 92.1107 -29.1479 -2.01318 0.333213 69.7947 3.41395 17.6538 39.0583 -2.52118 4.23714 0.728802 7.94226 -90.7146 10.9944 1.11981 -1.52863 -0.676997 1.05146 -1.57643 -23.2116 1.52743 -1.12145 -3.19896 1.52744 -1.12145 100.184 -51.2942 -85.2123 20.6731 -11.2895 -23.7014 -2.61153 -12.2311 -25.2274 -11.6755 -0.42433 -0.983133 -83.1283 -52.0959 89.0351 -30.3753 -4.45973 -6.53405 -2.67375 48.9857 -0.00253442 -3.50953 -0.0444498 -8.83013 2.49056 0.56376 -4.42984 -19.3862 0.351101 6.84196 
179.641 95.7213 -185.832 -98.8179 -44.1476 -94.081 -178.596 17.2656 88.2155 -8.50794 13.4959 1.19126 46.0556 -7.09544 7.86249 43.0413 -1.53304 6.96429 174.191 -7.75091 89.4881 -32.3115 -6.90523 -0.754035 63.5501 5.25998 18.8124 50.8234 -4.80936 5.68348 0.823147 7.94359 -90.4493 10.993 1.43065 -1.0304 -0.677632 1.38391 -1.09238 -23.2179 1.67416 -0.552727 -3.20527 1.67416 -0.552727 100.54 -51.4039 -84.6621 21.7092 -11.8068 -22.394 -3.35004 -13.9593 -24.737 -10.776 -0.290301 -2.13344 -83.1385 -53.6617 89.1614 -28.808 -5.27713 -8.64095 -2.21486 49.4981 -0.00270182 -3.80135 -0.0441122 -8.09075 4.07565 -0.0284483 -3.80861 -20.5098 -0.152844 5.4706 
173.4 94.9066 -179 -99.4721 -45.0992 -96.5736 -177.713 19.4907 85.9056 -24.3086 15.056 0.302686 52.5214 -4.46472 11.3088 40.4123 -1.24142 1.34111 171.972 -5.35443 84.4927 -42.16 -6.03173 -1.13887 47.4039 11.6307 24.8097 50.7249 -3.04362 21.6294 0.629786 7.91978 -89.9613 11.0347 1.27165 -0.044444 -0.635638 1.26846 -0.100379 -23.1755 1.22622 0.339856 -3.16283 1.22618 0.339843 100.419 -52.1288 -84.8239 25.4358 -12.4486 -14.5776 -2.04725 -13.3001 -23.605 -15.2713 -0.677286 -0.0424734 -83.9571 -51.9142 87.7897 -31.0501 -8.07835 -13.5795 0.424112 53.8753 -0.00346823 -3.53621 -0.0496308 -8.41502 3.47851 -0.0766694 -5.3323 -19.9844 -0.0737751 6.45146 
167.898 95.121 -172.635 -102.152 -46.4648 -99.8654 -177.204 14.6958 83.9189 -30.2328 16.2138 0.18371 59.6685 1.3054 18.0762 35.4712 -0.430464 -6.03366 171.363 4.83674 83.2424 -59.1284 -12.5026 -1.2844 42.875 12.4392 16.9125 46.4646 -3.63303 11.3411 0.258858 8.08883 -89.7384 10.6938 0.635966 0.459632 -0.977071 0.655606 0.431189 -23.5122 0.468441 0.629519 -3.4996 0.468428 0.62951 100.938 -52.4625 -84.028 28.8366 -8.83083 -10.3103 -2.3395 -19.4745 -17.561 -9.15228 -0.493462 0.952119 -84.1814 -52.0134 87.4674 -30.9971 -5.79871 -20.8363 0.083942 53.3252 -0.00418978 -2.10896 -0.102693 -7.49114 3.94148 0.519257 -4.68098 -20.9857 0.284833 7.01201 
162.246 96.0824 -166.435 -103.759 -48.9665 -99.6264 -176.511 8.38247 86.1925 -30.7401 18.985 1.07153 63.7112 4.74619 18.064 37.4663 -0.818638 -3.79298 172.39 14.6001 86.2685 -62.704 -10.8551 -0.805071 48.2042 9.99946 17.9059 38.8037 -2.41924 9.31193 -0.113173 8.11305 -89.969 10.6492 -0.211043 0.0824411 -1.02175 -0.207196 0.0916415 -23.5571 -0.226034 0.0152025 -3.54443 -0.226055 0.0151973 101.162 -53.0848 -83.6774 29.9392 -4.95986 -5.44375 -0.71205 -20.1446 -13.2044 -9.54213 -0.538175 1.42815 -84.1124 -51.5968 87.524 -30.2953 -1.50945 -27.2979 -1.60681 50.989 -0.00487238 0.659415 -0.159814 -7.07846 2.60049 1.10044 -3.64524 -21.2573 0.69583 6.53449 
156.765 96.9031 -160.523 -106.706 -51.119 -101.887 -176.06 -0.50804 86.4958 -27.1547 20.9464 1.96987 65.2829 6.91171 18.1185 40.1646 -1.22961 -2.62197 173.326 18.7124 87.5417 -51.5181 -8.32602 0.0100547 53.7159 7.61097 18.0275 41.3627 -2.95069 6.09778 -0.435463 8.16511 -90.0417 10.5439 -0.886369 -0.00347468 -1.12675 -0.885662 0.0355386 -23.6642 -0.844346 -0.269726 -3.65152 -0.844351 -0.269729 101.519 -53.4243 -83.1379 30.3627 -3.03171 0.684155 -0.437322 -20.7202 -12.1443 -9.89634 -0.532089 1.12308 -83.8443 -49.921 87.745 -29.724 3.25868 -32.8717 -2.82552 48.4797 -0.00635317 1.95511 -0.224048 -7.90294 1.9053 1.06456 -5.4609 -21.7386 0.554675 8.69351 
151.327 97.1263 -154.866 -103.336 -53.8361 -98.7653 -175.144 -4.2287 88.3832 -24.3724 23.1037 2.52268 66.136 8.25874 16.7704 43.6218 -1.65515 0.0477242 174.689 19.2598 87.8836 -25.1846 -0.260004 1.13688 53.4106 8.68636 23.3068 34.1609 -1.27061 -0.415736 -0.551846 7.87772 -90.1978 11.1172 -1.19028 -0.279334 -0.553229 -1.20146 -0.226664 -23.0917 -1.0513 -0.624176 -3.07904 -1.05131 -0.624184 101.966 -53.6504 -82.4684 31.3474 -0.732404 5.58501 -1.04674 -20.2539 -13.098 -9.7031 -0.664362 2.91898 -83.7329 -48.608 87.7727 -27.423 8.72243 -38.511 0.134611 43.3725 -7.71013 1.60807 -0.281551 -9.99386 2.65699 0.818126 -5.29187 -21.793 0.542875 7.23599 
145.674 96.7919 -149.154 -103.459 -56.2736 -100.865 -175.175 -9.6488 88.3618 -23.0152 25.7621 3.17261 64.9686 8.26349 15.4923 48.3379 -1.99234 3.48805 176.156 16.7454 85.5783 -5.64711 7.66287 0.0721162 53.0422 10.4858 28.8995 31.5215 -0.375328 -4.68705 -0.747638 7.82085 -90.0917 11.2321 -1.53061 -0.0317686 -0.43791 -1.53051 0.0356396 -22.9797 -1.45029 -0.490408 -2.96708 -1.45029 -0.490409 102.339 -53.8997 -81.9123 31.796 0.900252 7.33776 -1.11745 -20.8715 -12.1674 -8.50229 -0.566233 2.67343 -83.9062 -48.1204 87.4509 -26.1547 11.0001 -41.7556 3.64512 45.0068 -13.0406 -0.145788 -0.231551 -11.4311 2.94621 0.484229 -5.01478 -21.3625 0.284575 6.72196 
138.995 95.8864 -142.883 -103.75 -56.5737 -100.539 -175.87 -11.7889 89.947 -29.9106 26.8204 5.5145 62.6431 5.58172 12.1495 56.6452 -2.52183 4.29694 175.673 18.0953 86.8283 -12.5768 3.19693 1.06779 48.8901 11.8279 22.7173 36.6422 -1.867 -3.63178 -0.828992 7.78054 -90.3237 11.3095 -1.80042 -0.46566 -0.360254 -1.81916 -0.385944 -22.9028 -1.57722 -0.985343 -2.89017 -1.57723 -0.985337 102.582 -54.0505 -81.5512 30.6006 1.29817 5.97203 -0.839273 -21.3543 -10.9253 -7.12189 -0.484191 2.91533 -84.0447 -49.1013 87.3479 -25.8555 11.7315 -38.7086 2.95653 42.0991 -13.8275 0.655851 -0.25198 -10.5185 3.52241 0.994942 -4.13992 -21.4608 0.643154 6.83739 
132.03 95.3363 -136.199 -104.187 -57.2813 -98.3831 -177.352 -8.94486 93.5703 -41.4207 19.4439 6.60808 51.2329 -3.67606 -0.76833 65.3554 -4.79862 -3.29363 174.858 19.4422 90.0041 -25.9637 -4.32724 2.8785 52.487 10.3836 12.5325 28.2754 0.0939468 0.335022 -0.965581 7.62731 -90.7672 11.606 -2.28007 -1.29281 -0.0635055 -2.33476 -1.19118 -22.6043 -1.78618 -1.91832 -2.59165 -1.78617 -1.91833 102.461 -53.8473 -81.7296 29.286 0.598984 4.44361 -0.339051 -19.5192 -11.1769 -9.39521 -0.527373 1.41728 -83.9331 -50.0984 87.6296 -28.6879 9.4128 -31.2929 -0.150723 45.4784 -8.40896 0.678756 -0.184839 -7.91008 2.57103 1.30326 -4.80538 -21.3011 0.859176 7.97736 
125.672 95.2724 -130.422 -104.94 -56.4078 -97.2663 -178.234 1.34236 94.9896 -59.1957 11.21 5.4622 45.5921 -5.66135 4.72718 57.5131 -3.47419 -1.94987 174.228 16.5211 92.4629 -33.4151 -3.07589 3.8946 61.7681 7.3153 12.9529 21.7684 1.66868 0.530315 -0.589657 7.68646 -91.0544 11.4826 -1.66582 -1.93007 -0.188597 -1.74913 -1.8549 -22.716 -1.00892 -2.34129 -2.70337 -1.00893 -2.34131 102.909 -54.1784 -81.0676 27.5247 -1.89058 0.118242 0.0959694 -16.7175 -13.1918 -11.3037 -0.775807 2.90702 -84.2464 -50.8346 87.2393 -32.3384 4.22756 -27.5054 -4.93023 51.4571 0.652578 -0.406513 -0.172012 -9.07803 3.80767 0.516646 -5.33644 -22.0281 0.504681 5.85955 
